# xmcd
#
# Track frame offsets:
#	150
#	19989
#	31005
#	47921
#	66204
#	82199
#	101738
#	118514
#	138234
#	152719
#	182127
#	204079
#
# Disc length: 3537 seconds
#
# Revision: 0
# Processed by: cddbd v1.5.1PL2 Copyright (c) Steve Scherf et al.
# Submitted via: dBpowerAMP V4.0
#
DISCID=9e0dcf0c
DTITLE=Tracy Caine - Look
DYEAR=2005
DGENRE=Country
TTITLE0=Little Girl
TTITLE1=Always a blank page
TTITLE2=alone today
TTITLE3=sometimes
TTITLE4=maybe
TTITLE5=why sould I believe
TTITLE6=home
TTITLE7=life is beautiful
TTITLE8=mike song
TTITLE9=happy
TTITLE10=my rain
TTITLE11=look
EXTD=EAN: 6 3447917874 0
EXTT0=
EXTT1=
EXTT2=
EXTT3=
EXTT4=
EXTT5=
EXTT6=
EXTT7=
EXTT8=
EXTT9=
EXTT10=
EXTT11=
PLAYORDER=
